<?xml version="1.0" encoding="utf-8"?>
<!-- Generator: Adobe Illustrator 18.0.0, SVG Export Plug-In . SVG Version: 6.00 Build 0)  -->
<!DOCTYPE svg PUBLIC "-//W3C//DTD SVG 1.1//EN" "http://www.w3.org/Graphics/SVG/1.1/DTD/svg11.dtd">
<svg version="1.1" xmlns="http://www.w3.org/2000/svg" xmlns:xlink="http://www.w3.org/1999/xlink" x="0px" y="0px"
	 viewBox="0 0 596 138.5" style="enable-background:new 0 0 596 138.5;" xml:space="preserve">
<style type="text/css">
	.st0{display:none;}
	.st1{display:inline;}
	.st2{fill:#FFFFFF;}
	.st3{fill:#003766;}
	.st4{opacity:0.4;fill:url(#SVGID_1_);}
	.st5{opacity:0.4;fill:url(#SVGID_2_);}
	.st6{display:inline;opacity:0.2;fill:url(#SVGID_3_);}
	.st7{display:inline;opacity:0.2;fill:url(#SVGID_4_);}
	.st8{fill:#005DAB;}
	.st9{fill:#425967;}
	.st10{opacity:0.4;fill:url(#SVGID_5_);}
	.st11{opacity:0.4;fill:url(#SVGID_6_);}
	.st12{display:inline;opacity:0.2;fill:url(#SVGID_7_);}
	.st13{display:inline;opacity:0.2;fill:url(#SVGID_8_);}
</style>
<g id="black_x5F_bg2" class="st0">
	<rect x="-99.5" y="-231.4" class="st1" width="800" height="600"/>
	<g class="st1">
		<g>
			<path class="st2" d="M67.2,80.2L67.2,80.2C51,68.4,38.8,47.9,48.6,31.7l0,0c4.4-5.4,10-9.8,16.2-13.5c0.7-0.3,1.4-0.6,2.1-1
				c-0.1,0-0.2,0-0.4,0C96.9,0.4,141.1,0.9,141.1,0.9S63.3-8.1,21.7,31.6c-8.2,6.9-14.4,16-18.1,26.1c0,0,0,0.1,0,0.1l0,0
				c-3,8.3-4.2,17.3-3.3,26.6c2,20.9,14.3,38.3,31.4,47.8c5.7,3.7,12.7,5.5,20,4.8c17.3-1.7,30-17.1,28.3-34.4
				C79.1,93.3,74.2,85.3,67.2,80.2z"/>
			<path class="st2" d="M95.5,27.3c-0.3,0.1-31.7,13-12.2,34.3C99.7,79.3,108,86.7,103,110.1c-1.9,9.6-7.9,18.1-17.5,25.1
				c24.1-10.2,39.9-35.2,37.2-62.6C120.8,53.4,110.4,37.1,95.5,27.3z"/>
		</g>
		<g>
			<path class="st2" d="M193.7,56.6c-1.4-1.8-3.4-3.2-5.9-4c-2.5-0.9-4.8-1.3-7-1.3c-1.3,0-2.6,0.2-4,0.5c-1.4,0.3-2.7,0.8-3.9,1.4
				c-1.2,0.6-2.2,1.5-3,2.6c-0.8,1.1-1.1,2.4-1.1,3.9c0,2.4,0.9,4.3,2.7,5.6c1.8,1.3,4.1,2.4,6.9,3.3c2.8,0.9,5.8,1.8,8.9,2.7
				s6.2,2.2,8.9,3.9c2.8,1.7,5.1,3.9,6.9,6.7c1.8,2.8,2.7,6.6,2.7,11.3c0,4.5-0.8,8.4-2.5,11.7c-1.7,3.3-3.9,6.1-6.8,8.3
				c-2.9,2.2-6.2,3.8-9.9,4.9c-3.8,1.1-7.7,1.6-11.9,1.6c-5.2,0-10.1-0.8-14.6-2.4c-4.5-1.6-8.7-4.2-12.5-7.8l12.7-13.9
				c1.8,2.4,4.1,4.3,6.9,5.6c2.8,1.3,5.6,2,8.6,2c1.4,0,2.9-0.2,4.4-0.5s2.8-0.9,4-1.5c1.2-0.7,2.1-1.6,2.9-2.6
				c0.7-1.1,1.1-2.3,1.1-3.8c0-2.4-0.9-4.3-2.8-5.8c-1.9-1.4-4.2-2.6-7-3.6c-2.8-1-5.9-2-9.1-3c-3.3-1-6.3-2.3-9.1-4
				c-2.8-1.7-5.1-3.9-7-6.6c-1.9-2.7-2.8-6.3-2.8-10.8c0-4.3,0.9-8.1,2.6-11.4c1.7-3.3,4-6,6.8-8.2c2.9-2.2,6.1-3.9,9.9-5
				c3.7-1.1,7.6-1.7,11.5-1.7c4.6,0,9,0.6,13.2,1.9c4.3,1.3,8.1,3.5,11.5,6.5L193.7,56.6z"/>
			<path class="st2" d="M249,110.7h-0.2c-1.9,3-4.4,5.1-7.6,6.4c-3.2,1.3-6.5,1.9-10,1.9c-2.6,0-5.1-0.4-7.5-1.1s-4.5-1.8-6.3-3.2
				c-1.8-1.4-3.3-3.2-4.3-5.4c-1.1-2.1-1.6-4.6-1.6-7.4c0-3.2,0.6-5.9,1.8-8.1c1.2-2.2,2.8-4,4.8-5.5c2-1.4,4.3-2.6,6.9-3.4
				c2.6-0.8,5.3-1.4,8-1.8c2.8-0.4,5.5-0.6,8.3-0.7c2.8-0.1,5.3-0.1,7.7-0.1c0-3-1.1-5.5-3.2-7.2c-2.2-1.8-4.7-2.7-7.7-2.7
				c-2.8,0-5.4,0.6-7.7,1.8c-2.3,1.2-4.4,2.8-6.2,4.8l-9.1-9.3c3.2-3,6.9-5.2,11.2-6.7c4.3-1.5,8.7-2.2,13.2-2.2
				c5,0,9.1,0.6,12.4,1.9c3.2,1.3,5.8,3.1,7.8,5.5c1.9,2.4,3.3,5.4,4,8.9c0.8,3.5,1.1,7.6,1.1,12.3v28.2H249V110.7z M244.8,93.4
				c-1.3,0-2.9,0.1-4.8,0.2c-1.9,0.1-3.8,0.4-5.6,1c-1.8,0.5-3.3,1.3-4.6,2.4c-1.3,1.1-1.9,2.5-1.9,4.4c0,2.1,0.9,3.6,2.6,4.6
				c1.7,1,3.6,1.5,5.5,1.5c1.7,0,3.3-0.2,4.8-0.7c1.6-0.5,2.9-1.1,4.2-1.9c1.2-0.8,2.2-1.9,2.9-3.2c0.7-1.3,1.1-2.8,1.1-4.6v-3.6
				H244.8z"/>
			<path class="st2" d="M272.8,31.5h17.1v86.2h-17.1V31.5z"/>
			<path class="st2" d="M351.8,108.1c-2.7,3.5-6.2,6.2-10.4,8.1c-4.2,1.9-8.5,2.8-13,2.8c-4.3,0-8.3-0.7-12-2.1s-7-3.3-9.8-5.9
				c-2.8-2.5-5-5.6-6.6-9.2c-1.6-3.6-2.4-7.6-2.4-12c0-4.4,0.8-8.4,2.4-12c1.6-3.6,3.8-6.6,6.6-9.2c2.8-2.5,6-4.5,9.8-5.9
				c3.8-1.4,7.8-2.1,12-2.1c4,0,7.5,0.7,10.8,2.1c3.2,1.4,6,3.3,8.2,5.9c2.2,2.5,4,5.6,5.2,9.2c1.2,3.6,1.8,7.6,1.8,12v5.4h-39.7
				c0.7,3.3,2.2,5.9,4.4,7.8c2.3,1.9,5.1,2.9,8.4,2.9c2.8,0,5.2-0.6,7.1-1.9c1.9-1.3,3.6-2.9,5.1-4.8L351.8,108.1z M337.4,83.7
				c0.1-2.9-0.9-5.4-2.8-7.4c-2-2.1-4.5-3.1-7.6-3.1c-1.9,0-3.6,0.3-5,0.9c-1.4,0.6-2.7,1.4-3.7,2.3c-1,1-1.8,2.1-2.4,3.3
				c-0.6,1.3-0.9,2.6-1,3.9H337.4z"/>
			<path class="st2" d="M393.3,78.5c-2.5-3.1-5.8-4.7-9.9-4.7c-1.4,0-2.8,0.3-4.2,1c-1.4,0.7-2.1,1.9-2.1,3.5c0,1.4,0.7,2.4,2.1,3
				c1.4,0.6,3.2,1.2,5.4,1.7c2.2,0.5,4.5,1,7,1.6c2.5,0.6,4.8,1.5,7,2.7c2.2,1.2,4,2.9,5.4,5c1.4,2.1,2.1,4.9,2.1,8.4
				c0,3.6-0.8,6.5-2.3,8.8c-1.6,2.3-3.6,4.2-6,5.6c-2.4,1.4-5.2,2.4-8.2,3c-3,0.6-6,0.9-9,0.9c-3.9,0-7.8-0.6-11.7-1.7
				c-4-1.1-7.3-3.1-10-5.9L369,100c1.6,2,3.4,3.5,5.3,4.5c1.9,1,4.2,1.5,6.8,1.5c2,0,3.8-0.3,5.4-0.9c1.6-0.6,2.4-1.6,2.4-3.1
				c0-1.4-0.7-2.5-2.1-3.2c-1.4-0.7-3.2-1.3-5.4-1.8c-2.2-0.5-4.5-1-7-1.6c-2.5-0.6-4.8-1.4-7-2.6c-2.2-1.1-4-2.8-5.4-4.8
				c-1.4-2.1-2.1-4.9-2.1-8.4c0-3.3,0.7-6.1,2-8.4c1.3-2.4,3.1-4.3,5.2-5.8c2.2-1.5,4.7-2.6,7.5-3.4c2.8-0.7,5.7-1.1,8.6-1.1
				c3.6,0,7.3,0.5,11.1,1.6c3.7,1.1,6.9,3,9.5,5.7L393.3,78.5z"/>
			<path class="st2" d="M415.9,36.9h9.6v71.8h36.9v8.9h-46.5V36.9z"/>
			<path class="st2" d="M465.4,91c0-4.2,0.7-8,2.2-11.4c1.4-3.4,3.4-6.4,5.9-8.8c2.5-2.5,5.5-4.4,9-5.8c3.5-1.4,7.3-2.1,11.4-2.1
				c4.1,0,7.9,0.7,11.4,2.1c3.5,1.4,6.5,3.3,9,5.8c2.5,2.5,4.5,5.4,5.9,8.8c1.4,3.4,2.2,7.2,2.2,11.4c0,4.2-0.7,8-2.2,11.4
				c-1.4,3.4-3.4,6.4-5.9,8.8c-2.5,2.5-5.5,4.4-9,5.8c-3.5,1.4-7.3,2.1-11.4,2.1c-4.1,0-7.9-0.7-11.4-2.1c-3.5-1.4-6.5-3.3-9-5.8
				c-2.5-2.5-4.5-5.4-5.9-8.8C466.1,98.9,465.4,95.1,465.4,91z M475,91c0,2.8,0.4,5.4,1.3,7.8c0.9,2.4,2.1,4.5,3.8,6.3
				c1.7,1.8,3.7,3.2,6,4.2c2.3,1,4.9,1.5,7.8,1.5c2.9,0,5.5-0.5,7.8-1.5c2.3-1,4.3-2.4,6-4.2c1.7-1.8,2.9-3.9,3.8-6.3
				c0.9-2.4,1.3-5,1.3-7.8c0-2.8-0.4-5.4-1.3-7.8c-0.9-2.4-2.1-4.5-3.8-6.3c-1.7-1.8-3.7-3.2-6-4.2c-2.3-1-4.9-1.5-7.8-1.5
				c-2.9,0-5.5,0.5-7.8,1.5c-2.3,1-4.3,2.4-6,4.2c-1.7,1.8-2.9,3.9-3.8,6.3C475.4,85.5,475,88.2,475,91z"/>
			<path class="st2" d="M537.9,71.8h-11.6v-7.5h11.6v-12c0-3.3,0.3-6.3,0.9-8.9c0.6-2.7,1.7-5,3.1-7c1.5-2,3.4-3.5,5.9-4.6
				c2.4-1.1,5.4-1.7,9-1.7c1.1,0,2.4,0.1,3.6,0.3c1.3,0.2,2.4,0.6,3.2,1l-1.3,8c-2.1-0.8-4.1-1.1-6-1.1c-2.3,0-4.1,0.4-5.4,1.2
				c-1.3,0.8-2.3,1.9-2.9,3.3c-0.6,1.4-1,3.1-1.1,5.1c-0.1,2-0.2,4.1-0.2,6.4v10h13v7.5h-13v45.8h-8.9V71.8z"/>
			<path class="st2" d="M595.6,71.8h-15.7v26.7c0,1.7,0,3.4,0.1,4.8c0.1,1.5,0.4,2.8,0.9,3.9c0.5,1.1,1.3,2,2.4,2.6
				c1.1,0.6,2.6,1,4.6,1c1.3,0,2.6-0.2,4-0.5c1.4-0.3,2.7-0.8,3.9-1.4l0.3,8.1c-1.5,0.7-3.2,1.2-5.1,1.5c-1.9,0.3-3.6,0.5-5.3,0.5
				c-3.2,0-5.7-0.4-7.6-1.3c-1.9-0.8-3.4-2-4.4-3.5c-1.1-1.5-1.8-3.4-2.1-5.6c-0.3-2.2-0.5-4.7-0.5-7.5V71.8h-11.6v-7.5h11.6V49.1
				h8.9v15.2h15.7V71.8z"/>
		</g>
	</g>
</g>
<g id="black_x5F_bg">
	<rect x="-99.5" y="-231.4" class="st0" width="800" height="600"/>
	<g>
		<g>
			<g>
				<path class="st3" d="M67.2,80.2L67.2,80.2C51,68.4,38.8,47.9,48.6,31.7l0,0c4.4-5.4,10-9.8,16.2-13.5c0.7-0.3,1.4-0.6,2.1-1
					c-0.1,0-0.2,0-0.4,0C96.9,0.4,141.1,0.9,141.1,0.9S63.3-8.1,21.7,31.6c-8.2,6.9-14.4,16-18.1,26.1c0,0,0,0.1,0,0.1l0,0
					c-3,8.3-4.2,17.3-3.3,26.6c2,20.9,14.3,38.3,31.4,47.8c5.7,3.7,12.7,5.5,20,4.8c17.3-1.7,30-17.1,28.3-34.4
					C79.1,93.3,74.2,85.3,67.2,80.2z"/>
				<path class="st2" d="M95.5,27.3c-0.3,0.1-31.7,13-12.2,34.3C99.7,79.3,108,86.7,103,110.1c-1.9,9.6-7.9,18.1-17.5,25.1
					c24.1-10.2,39.9-35.2,37.2-62.6C120.8,53.4,110.4,37.1,95.5,27.3z"/>
			</g>
			<g class="st0">
				<g class="st1">
					
						<linearGradient id="SVGID_1_" gradientUnits="userSpaceOnUse" x1="-26.8572" y1="0.9826" x2="19.5825" y2="55.1623" gradientTransform="matrix(0.9848 0.1736 -0.1736 0.9848 76.9827 17.7024)">
						<stop  offset="2.747250e-02" style="stop-color:#FFFFFF"/>
						<stop  offset="1" style="stop-color:#000000"/>
					</linearGradient>
					<path class="st4" d="M67.2,80.2L67.2,80.2C51,68.4,38.8,47.9,48.6,31.7l0,0c4.4-5.4,10-9.8,16.2-13.5c0.7-0.3,1.4-0.6,2.1-1
						c-0.1,0-0.2,0-0.4,0C96.9,0.4,141.1,0.9,141.1,0.9S63.3-8.1,21.7,31.6c-8.2,6.9-14.4,16-18.1,26.1c0,0,0,0.1,0,0.1l0,0
						c-3,8.3-4.2,17.3-3.3,26.6c2,20.9,14.3,38.3,31.4,47.8c5.7,3.7,12.7,5.5,20,4.8c17.3-1.7,30-17.1,28.3-34.4
						C79.1,93.3,74.2,85.3,67.2,80.2z"/>
					
						<linearGradient id="SVGID_2_" gradientUnits="userSpaceOnUse" x1="-24.261" y1="-1.2386" x2="22.1782" y2="52.9404" gradientTransform="matrix(0.9848 0.1736 -0.1736 0.9848 76.9827 17.7024)">
						<stop  offset="2.747250e-02" style="stop-color:#FFFFFF"/>
						<stop  offset="1" style="stop-color:#000000"/>
					</linearGradient>
					<path class="st5" d="M95.5,27.3c-0.3,0.1-31.7,13-12.2,34.3C99.7,79.3,108,86.7,103,110.1c-1.9,9.6-7.9,18.1-17.5,25.1
						c24.1-10.2,39.9-35.2,37.2-62.6C120.8,53.4,110.4,37.1,95.5,27.3z"/>
				</g>
				
					<linearGradient id="SVGID_3_" gradientUnits="userSpaceOnUse" x1="-30.1571" y1="-7.8625" x2="18.0684" y2="75.4901" gradientTransform="matrix(0.9848 0.1736 -0.1736 0.9848 76.9827 17.7024)">
					<stop  offset="2.747250e-02" style="stop-color:#FFFFFF"/>
					<stop  offset="0.7912" style="stop-color:#000000"/>
				</linearGradient>
				<path class="st6" d="M94.7,4.1c-0.2,0-0.3,0-0.5,0.1c-8.7,1.2-136.2,21-25.4,122.5c0.8-0.8,1.6-1.6,2.3-2.5
					c4.9-6,7.3-13.6,6.5-21.3c-0.8-8.3-5.1-15.8-11.9-20.7L64.3,81l0,0C47.7,68.2,36.4,47.1,46.6,30.5l0.1-0.1l0.1-0.1
					c3.3-4,7.4-7.8,12.3-11.2l-0.6,0l6.9-3.9C74.5,10.1,84.8,6.6,94.7,4.1z"/>
				
					<linearGradient id="SVGID_4_" gradientUnits="userSpaceOnUse" x1="62.1412" y1="38.1327" x2="31.9739" y2="34.1638" gradientTransform="matrix(0.9848 0.1736 -0.1736 0.9848 76.9827 17.7024)">
					<stop  offset="2.747250e-02" style="stop-color:#FFFFFF"/>
					<stop  offset="0.7912" style="stop-color:#000000"/>
				</linearGradient>
				<path class="st7" d="M95.2,30c-3.4,1.6-13.7,7.1-15.7,15.3c-1.1,4.6,0.8,9.5,5.5,14.6l2.5,2.7c6.6,7.1,11.8,12.8,15.2,19
					c6.1-4.1,11.6-9.3,16.7-15.1C116.3,51.7,107.8,38.7,95.2,30z"/>
			</g>
		</g>
		<g>
			<path class="st2" d="M193.7,56.6c-1.4-1.8-3.4-3.2-5.9-4c-2.5-0.9-4.8-1.3-7-1.3c-1.3,0-2.6,0.2-4,0.5c-1.4,0.3-2.7,0.8-3.9,1.4
				c-1.2,0.6-2.2,1.5-3,2.6c-0.8,1.1-1.1,2.4-1.1,3.9c0,2.4,0.9,4.3,2.7,5.6c1.8,1.3,4.1,2.4,6.9,3.3c2.8,0.9,5.8,1.8,8.9,2.7
				s6.2,2.2,8.9,3.9c2.8,1.7,5.1,3.9,6.9,6.7c1.8,2.8,2.7,6.6,2.7,11.3c0,4.5-0.8,8.4-2.5,11.7c-1.7,3.3-3.9,6.1-6.8,8.3
				c-2.9,2.2-6.2,3.8-9.9,4.9c-3.8,1.1-7.7,1.6-11.9,1.6c-5.2,0-10.1-0.8-14.6-2.4c-4.5-1.6-8.7-4.2-12.5-7.8l12.7-13.9
				c1.8,2.4,4.1,4.3,6.9,5.6c2.8,1.3,5.6,2,8.6,2c1.4,0,2.9-0.2,4.4-0.5s2.8-0.9,4-1.5c1.2-0.7,2.1-1.6,2.9-2.6
				c0.7-1.1,1.1-2.3,1.1-3.8c0-2.4-0.9-4.3-2.8-5.8c-1.9-1.4-4.2-2.6-7-3.6c-2.8-1-5.9-2-9.1-3c-3.3-1-6.3-2.3-9.1-4
				c-2.8-1.7-5.1-3.9-7-6.6c-1.9-2.7-2.8-6.3-2.8-10.8c0-4.3,0.9-8.1,2.6-11.4c1.7-3.3,4-6,6.8-8.2c2.9-2.2,6.1-3.9,9.9-5
				c3.7-1.1,7.6-1.7,11.5-1.7c4.6,0,9,0.6,13.2,1.9c4.3,1.3,8.1,3.5,11.5,6.5L193.7,56.6z"/>
			<path class="st2" d="M249,110.7h-0.2c-1.9,3-4.4,5.1-7.6,6.4c-3.2,1.3-6.5,1.9-10,1.9c-2.6,0-5.1-0.4-7.5-1.1s-4.5-1.8-6.3-3.2
				c-1.8-1.4-3.3-3.2-4.3-5.4c-1.1-2.1-1.6-4.6-1.6-7.4c0-3.2,0.6-5.9,1.8-8.1c1.2-2.2,2.8-4,4.8-5.5c2-1.4,4.3-2.6,6.9-3.4
				c2.6-0.8,5.3-1.4,8-1.8c2.8-0.4,5.5-0.6,8.3-0.7c2.8-0.1,5.3-0.1,7.7-0.1c0-3-1.1-5.5-3.2-7.2c-2.2-1.8-4.7-2.7-7.7-2.7
				c-2.8,0-5.4,0.6-7.7,1.8c-2.3,1.2-4.4,2.8-6.2,4.8l-9.1-9.3c3.2-3,6.9-5.2,11.2-6.7c4.3-1.5,8.7-2.2,13.2-2.2
				c5,0,9.1,0.6,12.4,1.9c3.2,1.3,5.8,3.1,7.8,5.5c1.9,2.4,3.3,5.4,4,8.9c0.8,3.5,1.1,7.6,1.1,12.3v28.2H249V110.7z M244.8,93.4
				c-1.3,0-2.9,0.1-4.8,0.2c-1.9,0.1-3.8,0.4-5.6,1c-1.8,0.5-3.3,1.3-4.6,2.4c-1.3,1.1-1.9,2.5-1.9,4.4c0,2.1,0.9,3.6,2.6,4.6
				c1.7,1,3.6,1.5,5.5,1.5c1.7,0,3.3-0.2,4.8-0.7c1.6-0.5,2.9-1.1,4.2-1.9c1.2-0.8,2.2-1.9,2.9-3.2c0.7-1.3,1.1-2.8,1.1-4.6v-3.6
				H244.8z"/>
			<path class="st2" d="M272.8,31.5h17.1v86.2h-17.1V31.5z"/>
			<path class="st2" d="M351.8,108.1c-2.7,3.5-6.2,6.2-10.4,8.1c-4.2,1.9-8.5,2.8-13,2.8c-4.3,0-8.3-0.7-12-2.1s-7-3.3-9.8-5.9
				c-2.8-2.5-5-5.6-6.6-9.2c-1.6-3.6-2.4-7.6-2.4-12c0-4.4,0.8-8.4,2.4-12c1.6-3.6,3.8-6.6,6.6-9.2c2.8-2.5,6-4.5,9.8-5.9
				c3.8-1.4,7.8-2.1,12-2.1c4,0,7.5,0.7,10.8,2.1c3.2,1.4,6,3.3,8.2,5.9c2.2,2.5,4,5.6,5.2,9.2c1.2,3.6,1.8,7.6,1.8,12v5.4h-39.7
				c0.7,3.3,2.2,5.9,4.4,7.8c2.3,1.9,5.1,2.9,8.4,2.9c2.8,0,5.2-0.6,7.1-1.9c1.9-1.3,3.6-2.9,5.1-4.8L351.8,108.1z M337.4,83.7
				c0.1-2.9-0.9-5.4-2.8-7.4c-2-2.1-4.5-3.1-7.6-3.1c-1.9,0-3.6,0.3-5,0.9c-1.4,0.6-2.7,1.4-3.7,2.3c-1,1-1.8,2.1-2.4,3.3
				c-0.6,1.3-0.9,2.6-1,3.9H337.4z"/>
			<path class="st2" d="M393.3,78.5c-2.5-3.1-5.8-4.7-9.9-4.7c-1.4,0-2.8,0.3-4.2,1c-1.4,0.7-2.1,1.9-2.1,3.5c0,1.4,0.7,2.4,2.1,3
				c1.4,0.6,3.2,1.2,5.4,1.7c2.2,0.5,4.5,1,7,1.6c2.5,0.6,4.8,1.5,7,2.7c2.2,1.2,4,2.9,5.4,5c1.4,2.1,2.1,4.9,2.1,8.4
				c0,3.6-0.8,6.5-2.3,8.8c-1.6,2.3-3.6,4.2-6,5.6c-2.4,1.4-5.2,2.4-8.2,3c-3,0.6-6,0.9-9,0.9c-3.9,0-7.8-0.6-11.7-1.7
				c-4-1.1-7.3-3.1-10-5.9L369,100c1.6,2,3.4,3.5,5.3,4.5c1.9,1,4.2,1.5,6.8,1.5c2,0,3.8-0.3,5.4-0.9c1.6-0.6,2.4-1.6,2.4-3.1
				c0-1.4-0.7-2.5-2.1-3.2c-1.4-0.7-3.2-1.3-5.4-1.8c-2.2-0.5-4.5-1-7-1.6c-2.5-0.6-4.8-1.4-7-2.6c-2.2-1.1-4-2.8-5.4-4.8
				c-1.4-2.1-2.1-4.9-2.1-8.4c0-3.3,0.7-6.1,2-8.4c1.3-2.4,3.1-4.3,5.2-5.8c2.2-1.5,4.7-2.6,7.5-3.4c2.8-0.7,5.7-1.1,8.6-1.1
				c3.6,0,7.3,0.5,11.1,1.6c3.7,1.1,6.9,3,9.5,5.7L393.3,78.5z"/>
			<path class="st3" d="M415.9,36.9h9.6v71.8h36.9v8.9h-46.5V36.9z"/>
			<path class="st3" d="M465.4,91c0-4.2,0.7-8,2.2-11.4c1.4-3.4,3.4-6.4,5.9-8.8c2.5-2.5,5.5-4.4,9-5.8c3.5-1.4,7.3-2.1,11.4-2.1
				c4.1,0,7.9,0.7,11.4,2.1c3.5,1.4,6.5,3.3,9,5.8c2.5,2.5,4.5,5.4,5.9,8.8c1.4,3.4,2.2,7.2,2.2,11.4c0,4.2-0.7,8-2.2,11.4
				c-1.4,3.4-3.4,6.4-5.9,8.8c-2.5,2.5-5.5,4.4-9,5.8c-3.5,1.4-7.3,2.1-11.4,2.1c-4.1,0-7.9-0.7-11.4-2.1c-3.5-1.4-6.5-3.3-9-5.8
				c-2.5-2.5-4.5-5.4-5.9-8.8C466.1,98.9,465.4,95.1,465.4,91z M475,91c0,2.8,0.4,5.4,1.3,7.8c0.9,2.4,2.1,4.5,3.8,6.3
				c1.7,1.8,3.7,3.2,6,4.2c2.3,1,4.9,1.5,7.8,1.5c2.9,0,5.5-0.5,7.8-1.5c2.3-1,4.3-2.4,6-4.2c1.7-1.8,2.9-3.9,3.8-6.3
				c0.9-2.4,1.3-5,1.3-7.8c0-2.8-0.4-5.4-1.3-7.8c-0.9-2.4-2.1-4.5-3.8-6.3c-1.7-1.8-3.7-3.2-6-4.2c-2.3-1-4.9-1.5-7.8-1.5
				c-2.9,0-5.5,0.5-7.8,1.5c-2.3,1-4.3,2.4-6,4.2c-1.7,1.8-2.9,3.9-3.8,6.3C475.4,85.5,475,88.2,475,91z"/>
			<path class="st3" d="M537.9,71.8h-11.6v-7.5h11.6v-12c0-3.3,0.3-6.3,0.9-8.9c0.6-2.7,1.7-5,3.1-7c1.5-2,3.4-3.5,5.9-4.6
				c2.4-1.1,5.4-1.7,9-1.7c1.1,0,2.4,0.1,3.6,0.3c1.3,0.2,2.4,0.6,3.2,1l-1.3,8c-2.1-0.8-4.1-1.1-6-1.1c-2.3,0-4.1,0.4-5.4,1.2
				c-1.3,0.8-2.3,1.9-2.9,3.3c-0.6,1.4-1,3.1-1.1,5.1c-0.1,2-0.2,4.1-0.2,6.4v10h13v7.5h-13v45.8h-8.9V71.8z"/>
			<path class="st3" d="M595.6,71.8h-15.7v26.7c0,1.7,0,3.4,0.1,4.8c0.1,1.5,0.4,2.8,0.9,3.9c0.5,1.1,1.3,2,2.4,2.6
				c1.1,0.6,2.6,1,4.6,1c1.3,0,2.6-0.2,4-0.5c1.4-0.3,2.7-0.8,3.9-1.4l0.3,8.1c-1.5,0.7-3.2,1.2-5.1,1.5c-1.9,0.3-3.6,0.5-5.3,0.5
				c-3.2,0-5.7-0.4-7.6-1.3c-1.9-0.8-3.4-2-4.4-3.5c-1.1-1.5-1.8-3.4-2.1-5.6c-0.3-2.2-0.5-4.7-0.5-7.5V71.8h-11.6v-7.5h11.6V49.1
				h8.9v15.2h15.7V71.8z"/>
		</g>
	</g>
</g>
<g id="white_x5F_bg" class="st0">
	<g class="st1">
		<g>
			<g>
				<path class="st8" d="M67.2,80.2L67.2,80.2C51,68.4,38.8,47.9,48.6,31.7l0,0c4.4-5.4,10-9.8,16.2-13.5c0.7-0.3,1.4-0.6,2.1-1
					c-0.1,0-0.2,0-0.4,0C96.9,0.4,141.1,0.9,141.1,0.9S63.3-8.1,21.7,31.6c-8.2,6.9-14.4,16-18.1,26.1c0,0,0,0.1,0,0.1l0,0
					c-3,8.3-4.2,17.3-3.3,26.6c2,20.9,14.3,38.3,31.4,47.8c5.7,3.7,12.7,5.5,20,4.8c17.3-1.7,30-17.1,28.3-34.4
					C79.1,93.3,74.2,85.3,67.2,80.2z"/>
				<path class="st9" d="M95.5,27.3c-0.3,0.1-31.7,13-12.2,34.3C99.7,79.3,108,86.7,103,110.1c-1.9,9.6-7.9,18.1-17.5,25.1
					c24.1-10.2,39.9-35.2,37.2-62.6C120.8,53.4,110.4,37.1,95.5,27.3z"/>
			</g>
			<g class="st0">
				<g class="st1">
					
						<linearGradient id="SVGID_5_" gradientUnits="userSpaceOnUse" x1="-26.8572" y1="0.9826" x2="19.5825" y2="55.1623" gradientTransform="matrix(0.9848 0.1736 -0.1736 0.9848 76.9827 17.7024)">
						<stop  offset="2.747250e-02" style="stop-color:#FFFFFF"/>
						<stop  offset="1" style="stop-color:#000000"/>
					</linearGradient>
					<path class="st10" d="M67.2,80.2L67.2,80.2C51,68.4,38.8,47.9,48.6,31.7l0,0c4.4-5.4,10-9.8,16.2-13.5c0.7-0.3,1.4-0.6,2.1-1
						c-0.1,0-0.2,0-0.4,0C96.9,0.4,141.1,0.9,141.1,0.9S63.3-8.1,21.7,31.6c-8.2,6.9-14.4,16-18.1,26.1c0,0,0,0.1,0,0.1l0,0
						c-3,8.3-4.2,17.3-3.3,26.6c2,20.9,14.3,38.3,31.4,47.8c5.7,3.7,12.7,5.5,20,4.8c17.3-1.7,30-17.1,28.3-34.4
						C79.1,93.3,74.2,85.3,67.2,80.2z"/>
					
						<linearGradient id="SVGID_6_" gradientUnits="userSpaceOnUse" x1="-24.261" y1="-1.2386" x2="22.1782" y2="52.9404" gradientTransform="matrix(0.9848 0.1736 -0.1736 0.9848 76.9827 17.7024)">
						<stop  offset="2.747250e-02" style="stop-color:#FFFFFF"/>
						<stop  offset="1" style="stop-color:#000000"/>
					</linearGradient>
					<path class="st11" d="M95.5,27.3c-0.3,0.1-31.7,13-12.2,34.3C99.7,79.3,108,86.7,103,110.1c-1.9,9.6-7.9,18.1-17.5,25.1
						c24.1-10.2,39.9-35.2,37.2-62.6C120.8,53.4,110.4,37.1,95.5,27.3z"/>
				</g>
				
					<linearGradient id="SVGID_7_" gradientUnits="userSpaceOnUse" x1="-30.1571" y1="-7.8625" x2="18.0684" y2="75.4901" gradientTransform="matrix(0.9848 0.1736 -0.1736 0.9848 76.9827 17.7024)">
					<stop  offset="2.747250e-02" style="stop-color:#FFFFFF"/>
					<stop  offset="0.7912" style="stop-color:#000000"/>
				</linearGradient>
				<path class="st12" d="M94.7,4.1c-0.2,0-0.3,0-0.5,0.1c-8.7,1.2-136.2,21-25.4,122.5c0.8-0.8,1.6-1.6,2.3-2.5
					c4.9-6,7.3-13.6,6.5-21.3c-0.8-8.3-5.1-15.8-11.9-20.7L64.3,81l0,0C47.7,68.2,36.4,47.1,46.6,30.5l0.1-0.1l0.1-0.1
					c3.3-4,7.4-7.8,12.3-11.2l-0.6,0l6.9-3.9C74.5,10.1,84.8,6.6,94.7,4.1z"/>
				
					<linearGradient id="SVGID_8_" gradientUnits="userSpaceOnUse" x1="62.1412" y1="38.1327" x2="31.9739" y2="34.1638" gradientTransform="matrix(0.9848 0.1736 -0.1736 0.9848 76.9827 17.7024)">
					<stop  offset="2.747250e-02" style="stop-color:#FFFFFF"/>
					<stop  offset="0.7912" style="stop-color:#000000"/>
				</linearGradient>
				<path class="st13" d="M95.2,30c-3.4,1.6-13.7,7.1-15.7,15.3c-1.1,4.6,0.8,9.5,5.5,14.6l2.5,2.7c6.6,7.1,11.8,12.8,15.2,19
					c6.1-4.1,11.6-9.3,16.7-15.1C116.3,51.7,107.8,38.7,95.2,30z"/>
			</g>
		</g>
		<g>
			<path class="st9" d="M193.7,56.6c-1.4-1.8-3.4-3.2-5.9-4c-2.5-0.9-4.8-1.3-7-1.3c-1.3,0-2.6,0.2-4,0.5c-1.4,0.3-2.7,0.8-3.9,1.4
				c-1.2,0.6-2.2,1.5-3,2.6c-0.8,1.1-1.1,2.4-1.1,3.9c0,2.4,0.9,4.3,2.7,5.6c1.8,1.3,4.1,2.4,6.9,3.3c2.8,0.9,5.8,1.8,8.9,2.7
				s6.2,2.2,8.9,3.9c2.8,1.7,5.1,3.9,6.9,6.7c1.8,2.8,2.7,6.6,2.7,11.3c0,4.5-0.8,8.4-2.5,11.7c-1.7,3.3-3.9,6.1-6.8,8.3
				c-2.9,2.2-6.2,3.8-9.9,4.9c-3.8,1.1-7.7,1.6-11.9,1.6c-5.2,0-10.1-0.8-14.6-2.4c-4.5-1.6-8.7-4.2-12.5-7.8l12.7-13.9
				c1.8,2.4,4.1,4.3,6.9,5.6c2.8,1.3,5.6,2,8.6,2c1.4,0,2.9-0.2,4.4-0.5s2.8-0.9,4-1.5c1.2-0.7,2.1-1.6,2.9-2.6
				c0.7-1.1,1.1-2.3,1.1-3.8c0-2.4-0.9-4.3-2.8-5.8c-1.9-1.4-4.2-2.6-7-3.6c-2.8-1-5.9-2-9.1-3c-3.3-1-6.3-2.3-9.1-4
				c-2.8-1.7-5.1-3.9-7-6.6c-1.9-2.7-2.8-6.3-2.8-10.8c0-4.3,0.9-8.1,2.6-11.4c1.7-3.3,4-6,6.8-8.2c2.9-2.2,6.1-3.9,9.9-5
				c3.7-1.1,7.6-1.7,11.5-1.7c4.6,0,9,0.6,13.2,1.9c4.3,1.3,8.1,3.5,11.5,6.5L193.7,56.6z"/>
			<path class="st9" d="M249,110.7h-0.2c-1.9,3-4.4,5.1-7.6,6.4c-3.2,1.3-6.5,1.9-10,1.9c-2.6,0-5.1-0.4-7.5-1.1s-4.5-1.8-6.3-3.2
				c-1.8-1.4-3.3-3.2-4.3-5.4c-1.1-2.1-1.6-4.6-1.6-7.4c0-3.2,0.6-5.9,1.8-8.1c1.2-2.2,2.8-4,4.8-5.5c2-1.4,4.3-2.6,6.9-3.4
				c2.6-0.8,5.3-1.4,8-1.8c2.8-0.4,5.5-0.6,8.3-0.7c2.8-0.1,5.3-0.1,7.7-0.1c0-3-1.1-5.5-3.2-7.2c-2.2-1.8-4.7-2.7-7.7-2.7
				c-2.8,0-5.4,0.6-7.7,1.8c-2.3,1.2-4.4,2.8-6.2,4.8l-9.1-9.3c3.2-3,6.9-5.2,11.2-6.7c4.3-1.5,8.7-2.2,13.2-2.2
				c5,0,9.1,0.6,12.4,1.9c3.2,1.3,5.8,3.1,7.8,5.5c1.9,2.4,3.3,5.4,4,8.9c0.8,3.5,1.1,7.6,1.1,12.3v28.2H249V110.7z M244.8,93.4
				c-1.3,0-2.9,0.1-4.8,0.2c-1.9,0.1-3.8,0.4-5.6,1c-1.8,0.5-3.3,1.3-4.6,2.4c-1.3,1.1-1.9,2.5-1.9,4.4c0,2.1,0.9,3.6,2.6,4.6
				c1.7,1,3.6,1.5,5.5,1.5c1.7,0,3.3-0.2,4.8-0.7c1.6-0.5,2.9-1.1,4.2-1.9c1.2-0.8,2.2-1.9,2.9-3.2c0.7-1.3,1.1-2.8,1.1-4.6v-3.6
				H244.8z"/>
			<path class="st9" d="M272.8,31.5h17.1v86.2h-17.1V31.5z"/>
			<path class="st9" d="M351.8,108.1c-2.7,3.5-6.2,6.2-10.4,8.1c-4.2,1.9-8.5,2.8-13,2.8c-4.3,0-8.3-0.7-12-2.1s-7-3.3-9.8-5.9
				c-2.8-2.5-5-5.6-6.6-9.2c-1.6-3.6-2.4-7.6-2.4-12c0-4.4,0.8-8.4,2.4-12c1.6-3.6,3.8-6.6,6.6-9.2c2.8-2.5,6-4.5,9.8-5.9
				c3.8-1.4,7.8-2.1,12-2.1c4,0,7.5,0.7,10.8,2.1c3.2,1.4,6,3.3,8.2,5.9c2.2,2.5,4,5.6,5.2,9.2c1.2,3.6,1.8,7.6,1.8,12v5.4h-39.7
				c0.7,3.3,2.2,5.9,4.4,7.8c2.3,1.9,5.1,2.9,8.4,2.9c2.8,0,5.2-0.6,7.1-1.9c1.9-1.3,3.6-2.9,5.1-4.8L351.8,108.1z M337.4,83.7
				c0.1-2.9-0.9-5.4-2.8-7.4c-2-2.1-4.5-3.1-7.6-3.1c-1.9,0-3.6,0.3-5,0.9c-1.4,0.6-2.7,1.4-3.7,2.3c-1,1-1.8,2.1-2.4,3.3
				c-0.6,1.3-0.9,2.6-1,3.9H337.4z"/>
			<path class="st9" d="M393.3,78.5c-2.5-3.1-5.8-4.7-9.9-4.7c-1.4,0-2.8,0.3-4.2,1c-1.4,0.7-2.1,1.9-2.1,3.5c0,1.4,0.7,2.4,2.1,3
				c1.4,0.6,3.2,1.2,5.4,1.7c2.2,0.5,4.5,1,7,1.6c2.5,0.6,4.8,1.5,7,2.7c2.2,1.2,4,2.9,5.4,5c1.4,2.1,2.1,4.9,2.1,8.4
				c0,3.6-0.8,6.5-2.3,8.8c-1.6,2.3-3.6,4.2-6,5.6c-2.4,1.4-5.2,2.4-8.2,3c-3,0.6-6,0.9-9,0.9c-3.9,0-7.8-0.6-11.7-1.7
				c-4-1.1-7.3-3.1-10-5.9L369,100c1.6,2,3.4,3.5,5.3,4.5c1.9,1,4.2,1.5,6.8,1.5c2,0,3.8-0.3,5.4-0.9c1.6-0.6,2.4-1.6,2.4-3.1
				c0-1.4-0.7-2.5-2.1-3.2c-1.4-0.7-3.2-1.3-5.4-1.8c-2.2-0.5-4.5-1-7-1.6c-2.5-0.6-4.8-1.4-7-2.6c-2.2-1.1-4-2.8-5.4-4.8
				c-1.4-2.1-2.1-4.9-2.1-8.4c0-3.3,0.7-6.1,2-8.4c1.3-2.4,3.1-4.3,5.2-5.8c2.2-1.5,4.7-2.6,7.5-3.4c2.8-0.7,5.7-1.1,8.6-1.1
				c3.6,0,7.3,0.5,11.1,1.6c3.7,1.1,6.9,3,9.5,5.7L393.3,78.5z"/>
			<path class="st8" d="M415.9,36.9h9.6v71.8h36.9v8.9h-46.5V36.9z"/>
			<path class="st8" d="M465.4,91c0-4.2,0.7-8,2.2-11.4c1.4-3.4,3.4-6.4,5.9-8.8c2.5-2.5,5.5-4.4,9-5.8c3.5-1.4,7.3-2.1,11.4-2.1
				c4.1,0,7.9,0.7,11.4,2.1c3.5,1.4,6.5,3.3,9,5.8c2.5,2.5,4.5,5.4,5.9,8.8c1.4,3.4,2.2,7.2,2.2,11.4c0,4.2-0.7,8-2.2,11.4
				c-1.4,3.4-3.4,6.4-5.9,8.8c-2.5,2.5-5.5,4.4-9,5.8c-3.5,1.4-7.3,2.1-11.4,2.1c-4.1,0-7.9-0.7-11.4-2.1c-3.5-1.4-6.5-3.3-9-5.8
				c-2.5-2.5-4.5-5.4-5.9-8.8C466.1,98.9,465.4,95.1,465.4,91z M475,91c0,2.8,0.4,5.4,1.3,7.8c0.9,2.4,2.1,4.5,3.8,6.3
				c1.7,1.8,3.7,3.2,6,4.2c2.3,1,4.9,1.5,7.8,1.5c2.9,0,5.5-0.5,7.8-1.5c2.3-1,4.3-2.4,6-4.2c1.7-1.8,2.9-3.9,3.8-6.3
				c0.9-2.4,1.3-5,1.3-7.8c0-2.8-0.4-5.4-1.3-7.8c-0.9-2.4-2.1-4.5-3.8-6.3c-1.7-1.8-3.7-3.2-6-4.2c-2.3-1-4.9-1.5-7.8-1.5
				c-2.9,0-5.5,0.5-7.8,1.5c-2.3,1-4.3,2.4-6,4.2c-1.7,1.8-2.9,3.9-3.8,6.3C475.4,85.5,475,88.2,475,91z"/>
			<path class="st8" d="M537.9,71.8h-11.6v-7.5h11.6v-12c0-3.3,0.3-6.3,0.9-8.9c0.6-2.7,1.7-5,3.1-7c1.5-2,3.4-3.5,5.9-4.6
				c2.4-1.1,5.4-1.7,9-1.7c1.1,0,2.4,0.1,3.6,0.3c1.3,0.2,2.4,0.6,3.2,1l-1.3,8c-2.1-0.8-4.1-1.1-6-1.1c-2.3,0-4.1,0.4-5.4,1.2
				c-1.3,0.8-2.3,1.9-2.9,3.3c-0.6,1.4-1,3.1-1.1,5.1c-0.1,2-0.2,4.1-0.2,6.4v10h13v7.5h-13v45.8h-8.9V71.8z"/>
			<path class="st8" d="M595.6,71.8h-15.7v26.7c0,1.7,0,3.4,0.1,4.8c0.1,1.5,0.4,2.8,0.9,3.9c0.5,1.1,1.3,2,2.4,2.6
				c1.1,0.6,2.6,1,4.6,1c1.3,0,2.6-0.2,4-0.5c1.4-0.3,2.7-0.8,3.9-1.4l0.3,8.1c-1.5,0.7-3.2,1.2-5.1,1.5c-1.9,0.3-3.6,0.5-5.3,0.5
				c-3.2,0-5.7-0.4-7.6-1.3c-1.9-0.8-3.4-2-4.4-3.5c-1.1-1.5-1.8-3.4-2.1-5.6c-0.3-2.2-0.5-4.7-0.5-7.5V71.8h-11.6v-7.5h11.6V49.1
				h8.9v15.2h15.7V71.8z"/>
		</g>
	</g>
</g>
</svg>
