<?xml version="1.0" encoding="utf-8"?>
<!-- Generator: Adobe Illustrator 19.0.1, SVG Export Plug-In . SVG Version: 6.00 Build 0)  -->
<svg version="1.1" xmlns="http://www.w3.org/2000/svg" xmlns:xlink="http://www.w3.org/1999/xlink" x="0px" y="0px"
	 viewBox="0 0 315 300" enable-background="new 0 0 315 300" xml:space="preserve">
<g id="black_x5F_bg2">
	<g>
		<g>
			<path fill="#FFFFFF" d="M151.2,172L151.2,172c-30.7-22.4-53.9-61.3-35.2-92l0,0c8.4-10.2,19-18.7,30.8-25.6
				c1.3-0.6,2.6-1.2,3.9-1.8c-0.2,0-0.4,0-0.7,0c57.6-32,141.3-31.1,141.3-31.1S143.7,4.6,64.9,79.9C49.4,93,37.5,110.1,30.6,129.4
				c0,0.1,0,0.1-0.1,0.2l0,0c-5.6,15.7-8,32.8-6.2,50.5c3.9,39.7,27.2,72.7,59.6,90.7c10.9,6.9,24.1,10.4,37.9,9.1
				c32.9-3.2,56.9-32.4,53.7-65.3C173.8,196.8,164.5,181.7,151.2,172z"/>
			<path fill="#FFFFFF" d="M204.8,71.6c-0.5,0.1-60.2,24.7-23.1,65c31.1,33.8,46.8,47.8,37.4,92.1c-3.6,18.2-14.9,34.3-33.2,47.5
				c45.7-19.4,75.6-66.7,70.5-118.7C252.9,121.1,233,90.3,204.8,71.6z"/>
		</g>
	</g>
</g>
<g id="black_x5F_bg" display="none">
	<rect x="200" y="-150" display="inline" width="800" height="600"/>
	<g display="inline">
		<g>
			<g>
				<path fill="#005DAB" d="M366.7,161.6L366.7,161.6c-16.2-11.8-28.4-32.3-18.6-48.5l0,0c4.4-5.4,10-9.8,16.2-13.5
					c0.7-0.3,1.4-0.6,2.1-1c-0.1,0-0.2,0-0.4,0c30.4-16.9,74.5-16.4,74.5-16.4s-77.8-8.9-119.4,30.8c-8.2,6.9-14.4,16-18.1,26.1
					c0,0,0,0.1,0,0.1l0,0c-3,8.3-4.2,17.3-3.3,26.6c2,20.9,14.3,38.3,31.4,47.8c5.7,3.7,12.7,5.5,20,4.8c17.3-1.7,30-17.1,28.3-34.4
					C378.6,174.7,373.7,166.7,366.7,161.6z"/>
				<path fill="#FFFFFF" d="M394.9,108.6c-0.3,0.1-31.7,13-12.2,34.3c16.4,17.8,24.7,25.2,19.7,48.6c-1.9,9.6-7.9,18.1-17.5,25.1
					c24.1-10.2,39.9-35.2,37.2-62.6C420.3,134.8,409.8,118.5,394.9,108.6z"/>
			</g>
			<g display="none">
				<g display="inline">
					
						<linearGradient id="SVGID_1_" gradientUnits="userSpaceOnUse" x1="272.5997" y1="82.3626" x2="319.0394" y2="136.5423" gradientTransform="matrix(0.9848 0.1736 -0.1736 0.9848 95.662 -33.0464)">
						<stop  offset="2.747250e-02" style="stop-color:#FFFFFF"/>
						<stop  offset="1" style="stop-color:#000000"/>
					</linearGradient>
					<path opacity="0.4" fill="url(#SVGID_1_)" d="M366.7,161.6L366.7,161.6c-16.2-11.8-28.4-32.3-18.6-48.5l0,0
						c4.4-5.4,10-9.8,16.2-13.5c0.7-0.3,1.4-0.6,2.1-1c-0.1,0-0.2,0-0.4,0c30.4-16.9,74.5-16.4,74.5-16.4s-77.8-8.9-119.4,30.8
						c-8.2,6.9-14.4,16-18.1,26.1c0,0,0,0.1,0,0.1l0,0c-3,8.3-4.2,17.3-3.3,26.6c2,20.9,14.3,38.3,31.4,47.8
						c5.7,3.7,12.7,5.5,20,4.8c17.3-1.7,30-17.1,28.3-34.4C378.6,174.7,373.7,166.7,366.7,161.6z"/>
					
						<linearGradient id="SVGID_2_" gradientUnits="userSpaceOnUse" x1="275.196" y1="80.1414" x2="321.6351" y2="134.3204" gradientTransform="matrix(0.9848 0.1736 -0.1736 0.9848 95.662 -33.0464)">
						<stop  offset="2.747250e-02" style="stop-color:#FFFFFF"/>
						<stop  offset="1" style="stop-color:#000000"/>
					</linearGradient>
					<path opacity="0.4" fill="url(#SVGID_2_)" d="M394.9,108.6c-0.3,0.1-31.7,13-12.2,34.3c16.4,17.8,24.7,25.2,19.7,48.6
						c-1.9,9.6-7.9,18.1-17.5,25.1c24.1-10.2,39.9-35.2,37.2-62.6C420.3,134.8,409.8,118.5,394.9,108.6z"/>
				</g>
				
					<linearGradient id="SVGID_3_" gradientUnits="userSpaceOnUse" x1="269.2998" y1="73.5175" x2="317.5253" y2="156.8701" gradientTransform="matrix(0.9848 0.1736 -0.1736 0.9848 95.662 -33.0464)">
					<stop  offset="2.747250e-02" style="stop-color:#FFFFFF"/>
					<stop  offset="0.7912" style="stop-color:#000000"/>
				</linearGradient>
				<path display="inline" opacity="0.2" fill="url(#SVGID_3_)" d="M394.2,85.5c-0.2,0-0.3,0-0.5,0.1c-8.7,1.2-136.2,21-25.4,122.5
					c0.8-0.8,1.6-1.6,2.3-2.5c4.9-6,7.3-13.6,6.5-21.3c-0.8-8.3-5.1-15.8-11.9-20.7l-1.5-1.2l0,0c-16.6-12.8-27.9-33.8-17.7-50.5
					l0.1-0.1l0.1-0.1c3.3-4,7.4-7.8,12.3-11.2l-0.6,0l6.9-3.9C374,91.5,384.2,87.9,394.2,85.5z"/>
				
					<linearGradient id="SVGID_4_" gradientUnits="userSpaceOnUse" x1="361.5981" y1="119.5127" x2="331.4308" y2="115.5438" gradientTransform="matrix(0.9848 0.1736 -0.1736 0.9848 95.662 -33.0464)">
					<stop  offset="2.747250e-02" style="stop-color:#FFFFFF"/>
					<stop  offset="0.7912" style="stop-color:#000000"/>
				</linearGradient>
				<path display="inline" opacity="0.2" fill="url(#SVGID_4_)" d="M394.7,111.4c-3.4,1.6-13.7,7.1-15.7,15.3
					c-1.1,4.6,0.8,9.5,5.5,14.6l2.5,2.7c6.6,7.1,11.8,12.8,15.2,19c6.1-4.1,11.6-9.3,16.7-15.1C415.8,133.1,407.2,120.1,394.7,111.4
					z"/>
			</g>
		</g>
		<text transform="matrix(1 0 0 1 445.0712 199.0176)"><tspan x="0" y="0" fill="#FFFFFF" font-family="'Avenir-Black'" font-size="114px" letter-spacing="-2">Sales</tspan><tspan x="260.3" y="0" fill="#005DAB" font-family="'Avenir-Roman'" font-size="114px" letter-spacing="-2">Loft</tspan></text>
	</g>
</g>
<g id="white_x5F_bg" display="none">
	<g display="inline">
		<g>
			<g>
				<path fill="#005DAB" d="M366.7,161.6L366.7,161.6c-16.2-11.8-28.4-32.3-18.6-48.5l0,0c4.4-5.4,10-9.8,16.2-13.5
					c0.7-0.3,1.4-0.6,2.1-1c-0.1,0-0.2,0-0.4,0c30.4-16.9,74.5-16.4,74.5-16.4s-77.8-8.9-119.4,30.8c-8.2,6.9-14.4,16-18.1,26.1
					c0,0,0,0.1,0,0.1l0,0c-3,8.3-4.2,17.3-3.3,26.6c2,20.9,14.3,38.3,31.4,47.8c5.7,3.7,12.7,5.5,20,4.8c17.3-1.7,30-17.1,28.3-34.4
					C378.6,174.7,373.7,166.7,366.7,161.6z"/>
				<path fill="#425967" d="M394.9,108.6c-0.3,0.1-31.7,13-12.2,34.3c16.4,17.8,24.7,25.2,19.7,48.6c-1.9,9.6-7.9,18.1-17.5,25.1
					c24.1-10.2,39.9-35.2,37.2-62.6C420.3,134.8,409.8,118.5,394.9,108.6z"/>
			</g>
			<g display="none">
				<g display="inline">
					
						<linearGradient id="SVGID_5_" gradientUnits="userSpaceOnUse" x1="272.5997" y1="82.3626" x2="319.0394" y2="136.5423" gradientTransform="matrix(0.9848 0.1736 -0.1736 0.9848 95.662 -33.0464)">
						<stop  offset="2.747250e-02" style="stop-color:#FFFFFF"/>
						<stop  offset="1" style="stop-color:#000000"/>
					</linearGradient>
					<path opacity="0.4" fill="url(#SVGID_5_)" d="M366.7,161.6L366.7,161.6c-16.2-11.8-28.4-32.3-18.6-48.5l0,0
						c4.4-5.4,10-9.8,16.2-13.5c0.7-0.3,1.4-0.6,2.1-1c-0.1,0-0.2,0-0.4,0c30.4-16.9,74.5-16.4,74.5-16.4s-77.8-8.9-119.4,30.8
						c-8.2,6.9-14.4,16-18.1,26.1c0,0,0,0.1,0,0.1l0,0c-3,8.3-4.2,17.3-3.3,26.6c2,20.9,14.3,38.3,31.4,47.8
						c5.7,3.7,12.7,5.5,20,4.8c17.3-1.7,30-17.1,28.3-34.4C378.6,174.7,373.7,166.7,366.7,161.6z"/>
					
						<linearGradient id="SVGID_6_" gradientUnits="userSpaceOnUse" x1="275.196" y1="80.1414" x2="321.6351" y2="134.3204" gradientTransform="matrix(0.9848 0.1736 -0.1736 0.9848 95.662 -33.0464)">
						<stop  offset="2.747250e-02" style="stop-color:#FFFFFF"/>
						<stop  offset="1" style="stop-color:#000000"/>
					</linearGradient>
					<path opacity="0.4" fill="url(#SVGID_6_)" d="M394.9,108.6c-0.3,0.1-31.7,13-12.2,34.3c16.4,17.8,24.7,25.2,19.7,48.6
						c-1.9,9.6-7.9,18.1-17.5,25.1c24.1-10.2,39.9-35.2,37.2-62.6C420.3,134.8,409.8,118.5,394.9,108.6z"/>
				</g>
				
					<linearGradient id="SVGID_7_" gradientUnits="userSpaceOnUse" x1="269.2998" y1="73.5175" x2="317.5253" y2="156.8701" gradientTransform="matrix(0.9848 0.1736 -0.1736 0.9848 95.662 -33.0464)">
					<stop  offset="2.747250e-02" style="stop-color:#FFFFFF"/>
					<stop  offset="0.7912" style="stop-color:#000000"/>
				</linearGradient>
				<path display="inline" opacity="0.2" fill="url(#SVGID_7_)" d="M394.2,85.5c-0.2,0-0.3,0-0.5,0.1c-8.7,1.2-136.2,21-25.4,122.5
					c0.8-0.8,1.6-1.6,2.3-2.5c4.9-6,7.3-13.6,6.5-21.3c-0.8-8.3-5.1-15.8-11.9-20.7l-1.5-1.2l0,0c-16.6-12.8-27.9-33.8-17.7-50.5
					l0.1-0.1l0.1-0.1c3.3-4,7.4-7.8,12.3-11.2l-0.6,0l6.9-3.9C374,91.5,384.2,87.9,394.2,85.5z"/>
				
					<linearGradient id="SVGID_8_" gradientUnits="userSpaceOnUse" x1="361.5981" y1="119.5127" x2="331.4308" y2="115.5438" gradientTransform="matrix(0.9848 0.1736 -0.1736 0.9848 95.662 -33.0464)">
					<stop  offset="2.747250e-02" style="stop-color:#FFFFFF"/>
					<stop  offset="0.7912" style="stop-color:#000000"/>
				</linearGradient>
				<path display="inline" opacity="0.2" fill="url(#SVGID_8_)" d="M394.7,111.4c-3.4,1.6-13.7,7.1-15.7,15.3
					c-1.1,4.6,0.8,9.5,5.5,14.6l2.5,2.7c6.6,7.1,11.8,12.8,15.2,19c6.1-4.1,11.6-9.3,16.7-15.1C415.8,133.1,407.2,120.1,394.7,111.4
					z"/>
			</g>
		</g>
		<text transform="matrix(1 0 0 1 445.071 199.0176)"><tspan x="0" y="0" fill="#425967" font-family="'Avenir-Black'" font-size="114px" letter-spacing="-2">Sales</tspan><tspan x="260.3" y="0" fill="#005DAB" font-family="'Avenir-Roman'" font-size="114px" letter-spacing="-2">Loft</tspan></text>
	</g>
</g>
</svg>
